<svg width="23" height="23" viewBox="0 0 23 23" fill="none" xmlns="http://www.w3.org/2000/svg">
<path d="M17.9356 19.7966C16.0948 21.2245 13.8313 21.9997 11.5016 22C9.51236 22.0031 7.56357 21.4385 5.88407 20.3725L1.00157 22L2.62907 17.1175C1.38266 15.1492 0.826253 12.8223 1.04744 10.5031C1.26864 8.18391 2.25486 6.00412 3.85086 4.30694C5.44685 2.60975 7.56197 1.49155 9.86322 1.12838C12.1645 0.765205 14.5212 1.17769 16.5622 2.3009C18.6033 3.4241 20.2129 5.19423 21.1376 7.33261C22.0622 9.47099 22.2495 11.8562 21.6698 14.1126C21.0901 16.3691 19.7764 18.3687 17.9356 19.7966Z" stroke="#F8FAFC" stroke-width="2" stroke-linecap="round" stroke-linejoin="round"/>
</svg>
