<svg width="55" height="55" viewBox="0 0 55 55" fill="none" xmlns="http://www.w3.org/2000/svg">
<path d="M38.9167 1C37.3696 1 35.8858 1.61458 34.7919 2.70854C33.6979 3.80251 33.0833 5.28624 33.0833 6.83333V24.3333C33.0833 25.8804 33.6979 27.3642 34.7919 28.4581C35.8858 29.5521 37.3696 30.1667 38.9167 30.1667C39.6902 30.1667 40.4321 30.474 40.9791 31.0209C41.526 31.5679 41.8333 32.3098 41.8333 33.0833V36C41.8333 37.5471 41.2188 39.0308 40.1248 40.1248C39.0308 41.2188 37.5471 41.8333 36 41.8333C35.2265 41.8333 34.4846 42.1406 33.9376 42.6876C33.3906 43.2346 33.0833 43.9765 33.0833 44.75V50.5833C33.0833 51.3569 33.3906 52.0988 33.9376 52.6457C34.4846 53.1927 35.2265 53.5 36 53.5C40.6413 53.5 45.0925 51.6563 48.3744 48.3744C51.6563 45.0925 53.5 40.6413 53.5 36V6.83333C53.5 5.28624 52.8854 3.80251 51.7915 2.70854C50.6975 1.61458 49.2138 1 47.6667 1H38.9167ZM6.83333 1C5.28624 1 3.80251 1.61458 2.70854 2.70854C1.61458 3.80251 1 5.28624 1 6.83333V24.3333C1 25.8804 1.61458 27.3642 2.70854 28.4581C3.80251 29.5521 5.28624 30.1667 6.83333 30.1667C7.60688 30.1667 8.34875 30.474 8.89573 31.0209C9.44271 31.5679 9.75 32.3098 9.75 33.0833V36C9.75 37.5471 9.13542 39.0308 8.04146 40.1248C6.94749 41.2188 5.46376 41.8333 3.91667 41.8333C3.14312 41.8333 2.40125 42.1406 1.85427 42.6876C1.30729 43.2346 1 43.9765 1 44.75V50.5833C1 51.3569 1.30729 52.0988 1.85427 52.6457C2.40125 53.1927 3.14312 53.5 3.91667 53.5C8.55796 53.5 13.0091 51.6563 16.291 48.3744C19.5729 45.0925 21.4167 40.6413 21.4167 36V6.83333C21.4167 5.28624 20.8021 3.80251 19.7081 2.70854C18.6142 1.61458 17.1304 1 15.5833 1H6.83333Z" stroke="black" stroke-opacity="0.5" stroke-width="2" stroke-linecap="round" stroke-linejoin="round"/>
</svg>
